<svg width="21" height="20" viewBox="0 0 21 20" fill="none" xmlns="http://www.w3.org/2000/svg">
<path d="M19.2102 0.170622C19.2102 0.170622 21.1527 -0.665876 20.9902 1.36546C20.9367 2.20196 20.4512 5.12998 20.0732 8.29652L18.7782 17.6774C18.7782 17.6774 18.6702 19.0517 17.6987 19.2908C16.7278 19.5293 15.2708 18.4543 15.0008 18.2152C14.7848 18.0358 10.9539 15.3468 9.60492 14.0327C9.22693 13.6738 8.79494 12.9572 9.65892 12.1207L15.3243 6.14537C15.9718 5.42869 16.6193 3.75569 13.9213 5.78703L6.3665 11.4631C6.3665 11.4631 5.50302 12.061 3.88456 11.5232L0.376638 10.3279C0.376638 10.3279 -0.918332 9.43173 1.29412 8.5356C6.69049 5.72739 13.3278 2.85956 19.2092 0.170622H19.2102Z" fill="black"/>
</svg>
