<svg width="15" height="15" viewBox="0 0 15 15" fill="none" xmlns="http://www.w3.org/2000/svg">
<path d="M7.5 2.34375C6.13248 2.34375 4.82097 2.887 3.85398 3.85398C2.887 4.82097 2.34375 6.13248 2.34375 7.5C2.34375 8.86752 2.887 10.179 3.85398 11.146C4.82097 12.113 6.13248 12.6562 7.5 12.6562C8.86752 12.6562 10.179 12.113 11.146 11.146C12.113 10.179 12.6562 8.86752 12.6562 7.5C12.6562 6.13248 12.113 4.82097 11.146 3.85398C10.179 2.887 8.86752 2.34375 7.5 2.34375ZM1.40625 7.5C1.40625 4.13438 4.13438 1.40625 7.5 1.40625C10.8656 1.40625 13.5938 4.13438 13.5938 7.5C13.5938 10.8656 10.8656 13.5938 7.5 13.5938C4.13438 13.5938 1.40625 10.8656 1.40625 7.5Z" fill="#1C1C1C"/>
<path d="M8.09313 5.72125C7.71977 5.59676 7.3167 5.5929 6.94103 5.71024C6.56536 5.82757 6.23614 6.06014 6 6.375C5.96307 6.42425 5.9168 6.46573 5.86383 6.4971C5.81086 6.52846 5.75223 6.54908 5.69129 6.55779C5.63035 6.56649 5.5683 6.56311 5.50867 6.54783C5.44904 6.53256 5.393 6.50568 5.34375 6.46875C5.29451 6.43182 5.25302 6.38554 5.22165 6.33258C5.19029 6.27961 5.16967 6.22098 5.16096 6.16004C5.15226 6.0991 5.15564 6.03705 5.17092 5.97741C5.18619 5.91778 5.21307 5.86175 5.25 5.8125C5.60418 5.34026 6.09796 4.99144 6.66141 4.81543C7.22485 4.63942 7.82939 4.64516 8.38939 4.83183C8.9494 5.0185 9.43647 5.37663 9.78162 5.8555C10.1268 6.33437 10.3125 6.90971 10.3125 7.5C10.3125 8.09029 10.1268 8.66563 9.78162 9.1445C9.43647 9.62337 8.9494 9.9815 8.38939 10.1682C7.82939 10.3548 7.22485 10.3606 6.66141 10.1846C6.09796 10.0086 5.60418 9.65974 5.25 9.1875C5.17541 9.08804 5.14338 8.96303 5.16096 8.83996C5.17854 8.71689 5.2443 8.60584 5.34375 8.53125C5.44321 8.45666 5.56822 8.42463 5.69129 8.44221C5.81436 8.45979 5.92541 8.52554 6 8.625C6.17646 8.86026 6.40577 9.05071 6.66943 9.18097C6.93308 9.31124 7.22368 9.37766 7.51774 9.37487C7.81181 9.37208 8.10109 9.30016 8.36223 9.16493C8.62336 9.02969 8.84903 8.83492 9.02099 8.59636C9.19295 8.3578 9.30639 8.08214 9.35214 7.79164C9.39789 7.50114 9.37467 7.20396 9.28435 6.92409C9.19403 6.64423 9.03915 6.38953 8.83221 6.18058C8.62528 5.97163 8.3721 5.81428 8.09313 5.72125Z" fill="#1C1C1C"/>
</svg>
