<svg width="21" height="18" viewBox="0 0 21 18" fill="none" xmlns="http://www.w3.org/2000/svg">
<path d="M17.7774 1.46519C16.416 0.775129 14.9792 0.283064 13.5031 0.00131855C13.4896 -0.00157734 13.4757 0.000324696 13.4633 0.00675021C13.4508 0.0131757 13.4406 0.0237926 13.434 0.0370699C13.2502 0.399414 13.0455 0.872877 12.902 1.24488C11.3108 0.97799 9.6922 0.97799 8.10098 1.24488C7.94128 0.831619 7.76106 0.428402 7.56112 0.0370699C7.55422 0.0240899 7.54393 0.0137245 7.53159 0.00734164C7.51924 0.000958796 7.50544 -0.00114132 7.492 0.00131855C6.01591 0.281531 4.57831 0.77432 3.21772 1.46519C3.2062 1.47053 3.19643 1.47963 3.18972 1.49128C0.466785 5.98338 -0.279573 10.3644 0.0870435 14.6903C0.0879837 14.701 0.09087 14.7114 0.0955303 14.7209C0.10019 14.7303 0.106529 14.7386 0.114168 14.7453C1.69928 16.0423 3.47244 17.0323 5.35792 17.6731C5.3712 17.6775 5.38539 17.6772 5.39854 17.6724C5.4117 17.6676 5.42318 17.6583 5.43142 17.646C5.83566 17.0373 6.19615 16.3947 6.50502 15.7193C6.5093 15.71 6.51174 15.6999 6.51219 15.6894C6.51263 15.679 6.51106 15.6686 6.50758 15.659C6.50411 15.6493 6.4988 15.6405 6.49203 15.6333C6.48525 15.626 6.47715 15.6204 6.46827 15.6169C5.90253 15.3778 5.35483 15.0896 4.83031 14.755C4.82078 14.7488 4.81277 14.74 4.80698 14.7296C4.80118 14.7192 4.79778 14.7073 4.79706 14.6951C4.79636 14.6829 4.79838 14.6707 4.80296 14.6596C4.80754 14.6485 4.81453 14.6388 4.82331 14.6313C4.93356 14.5405 5.0438 14.4458 5.1488 14.3492C5.15816 14.3409 5.16939 14.3357 5.18127 14.334C5.19314 14.3323 5.20521 14.3342 5.21617 14.3395C8.65309 16.072 12.3735 16.072 15.7702 14.3395C15.7812 14.3339 15.7935 14.3318 15.8056 14.3335C15.8176 14.3352 15.829 14.3407 15.8384 14.3492C15.9434 14.4439 16.0537 14.5405 16.1648 14.6313C16.1735 14.6386 16.1805 14.6482 16.185 14.6591C16.1896 14.6701 16.1917 14.6821 16.191 14.6941C16.1907 14.7063 16.1876 14.7183 16.1821 14.7289C16.1766 14.7395 16.1689 14.7484 16.1595 14.755C15.6354 15.0922 15.0877 15.3802 14.5207 15.615C14.5072 15.6204 14.4957 15.6304 14.4878 15.6437C14.4799 15.6569 14.4761 15.6726 14.477 15.6884C14.4778 15.7 14.4805 15.7097 14.4848 15.7193C14.7998 16.3938 15.1603 17.0354 15.5567 17.6451C15.5649 17.6574 15.5764 17.6666 15.5896 17.6714C15.6027 17.6763 15.6169 17.6765 15.6302 17.6721C17.5188 17.0333 19.2948 16.0431 20.8818 14.7444C20.8895 14.7383 20.896 14.7306 20.9008 14.7216C20.9057 14.7126 20.9087 14.7026 20.9098 14.6922C21.3473 9.68992 20.1766 5.34469 17.8045 1.49321C17.799 1.48017 17.7894 1.46984 17.7774 1.46422V1.46519ZM7.01776 12.0553C5.98353 12.0553 5.13043 11.0069 5.13043 9.71794C5.13043 8.42993 5.96691 7.38058 7.01776 7.38058C8.07648 7.38058 8.92171 8.43959 8.90509 9.71891C8.90509 11.0069 8.06861 12.0553 7.01776 12.0553ZM13.9957 12.0553C12.9606 12.0553 12.1084 11.0069 12.1084 9.71794C12.1084 8.42993 12.944 7.38058 13.9957 7.38058C15.0544 7.38058 15.8997 8.43959 15.8831 9.71891C15.8831 11.0069 15.0553 12.0553 13.9957 12.0553Z" fill="black"/>
</svg>
