<svg width="35" height="11" viewBox="0 0 35 11" fill="none" xmlns="http://www.w3.org/2000/svg">
<path d="M33.0517 10.9803H1.26242C0.565215 10.9803 0 10.3658 0 9.60777C0 8.84973 0.565215 8.2352 1.26242 8.2352H33.0517C33.7489 8.2352 34.3141 8.84973 34.3141 9.60777C34.3141 10.3658 33.7489 10.9803 33.0517 10.9803Z" fill="black"/>
<path d="M33.7082 10.9805C33.437 10.9807 33.1728 10.8962 32.9532 10.7392L21.1229 2.30545C20.5451 1.89346 20.4152 1.09766 20.8328 0.527647C21.2504 -0.0423609 22.057 -0.170571 22.6348 0.241419L34.4652 8.67517C35.0429 9.08716 35.1729 9.88296 34.7553 10.453C34.5028 10.7972 34.1084 10.9805 33.7082 10.9805Z" fill="black"/>
</svg>
