<svg width="61" height="121" viewBox="0 0 61 121" fill="none" xmlns="http://www.w3.org/2000/svg">
<path d="M29.3047 5.67188C28.0511 5.67188 26.8489 6.16985 25.9625 7.05625C25.0761 7.94266 24.5781 9.14488 24.5781 10.3984C24.5781 11.652 25.0761 12.8542 25.9625 13.7406C26.8489 14.627 28.0511 15.125 29.3047 15.125C30.5582 15.125 31.7605 14.627 32.6469 13.7406C33.5333 12.8542 34.0312 11.652 34.0312 10.3984C34.0312 9.14488 33.5333 7.94266 32.6469 7.05625C31.7605 6.16985 30.5582 5.67188 29.3047 5.67188Z" fill="#BFBFBF"/>
<path d="M29.3047 26.4688C28.0511 26.4688 26.8489 26.9667 25.9625 27.8531C25.0761 28.7395 24.5781 29.9418 24.5781 31.1953C24.5781 32.4489 25.0761 33.6511 25.9625 34.5375C26.8489 35.4239 28.0511 35.9219 29.3047 35.9219C30.5582 35.9219 31.7605 35.4239 32.6469 34.5375C33.5333 33.6511 34.0312 32.4489 34.0312 31.1953C34.0312 29.9418 33.5333 28.7395 32.6469 27.8531C31.7605 26.9667 30.5582 26.4688 29.3047 26.4688Z" fill="#BFBFBF"/>
<path d="M29.3047 47.2656C28.0511 47.2656 26.8489 47.7636 25.9625 48.65C25.0761 49.5364 24.5781 50.7386 24.5781 51.9922C24.5781 53.2457 25.0761 54.448 25.9625 55.3344C26.8489 56.2208 28.0511 56.7188 29.3047 56.7188C30.5582 56.7188 31.7605 56.2208 32.6469 55.3344C33.5333 54.448 34.0312 53.2457 34.0312 51.9922C34.0312 50.7386 33.5333 49.5364 32.6469 48.65C31.7605 47.7636 30.5582 47.2656 29.3047 47.2656Z" fill="#BFBFBF"/>
<path d="M29.3047 66.1719C28.0511 66.1719 26.8489 66.6699 25.9625 67.5563C25.0761 68.4427 24.5781 69.6449 24.5781 70.8984C24.5781 72.152 25.0761 73.3542 25.9625 74.2406C26.8489 75.127 28.0511 75.625 29.3047 75.625C30.5582 75.625 31.7605 75.127 32.6469 74.2406C33.5333 73.3542 34.0312 72.152 34.0312 70.8984C34.0312 69.6449 33.5333 68.4427 32.6469 67.5563C31.7605 66.6699 30.5582 66.1719 29.3047 66.1719Z" fill="#BFBFBF"/>
<path d="M29.3047 86.9688C28.0511 86.9688 26.8489 87.4667 25.9625 88.3531C25.0761 89.2395 24.5781 90.4418 24.5781 91.6953C24.5781 92.9489 25.0761 94.1511 25.9625 95.0375C26.8489 95.9239 28.0511 96.4219 29.3047 96.4219C30.5582 96.4219 31.7605 95.9239 32.6469 95.0375C33.5333 94.1511 34.0312 92.9489 34.0312 91.6953C34.0312 90.4418 33.5333 89.2395 32.6469 88.3531C31.7605 87.4667 30.5582 86.9688 29.3047 86.9688Z" fill="#BFBFBF"/>
<path d="M29.3047 107.766C28.0511 107.766 26.8489 108.264 25.9625 109.15C25.0761 110.036 24.5781 111.239 24.5781 112.492C24.5781 113.746 25.0761 114.948 25.9625 115.834C26.8489 116.721 28.0511 117.219 29.3047 117.219C30.5582 117.219 31.7605 116.721 32.6469 115.834C33.5333 114.948 34.0312 113.746 34.0312 112.492C34.0312 111.239 33.5333 110.036 32.6469 109.15C31.7605 108.264 30.5582 107.766 29.3047 107.766Z" fill="#1E1E1E"/>
</svg>
