<svg width="27" height="27" viewBox="0 0 27 27" fill="none" xmlns="http://www.w3.org/2000/svg">
<g clip-path="url(#clip0_3_1115)">
<path d="M20.4252 12.9085L7.79263 0.275039C7.42501 -0.0916317 6.8308 -0.0916316 6.46321 0.275039C6.09558 0.642661 6.09558 1.23779 6.46321 1.60541L18.479 13.6221L6.66161 25.4404C6.30433 25.7968 6.30433 26.375 6.66161 26.7313C7.01795 27.0896 7.59618 27.0896 7.95341 26.7313L20.2268 14.4589C20.2747 14.411 20.2982 14.3527 20.333 14.2972C20.3622 14.2756 20.3979 14.2643 20.4252 14.237C20.7919 13.8704 20.7919 13.2752 20.4252 12.9085L20.4252 12.9085Z" fill="#272636"/>
</g>
<defs>
<clipPath id="clip0_3_1115">
<rect width="27" height="27" fill="white" transform="translate(27 27) rotate(180)"/>
</clipPath>
</defs>
</svg>
